{
  "title": "Sultan (2016) 1080p Blu-ray x264 AAC 5.1 Subs -DDR",
  "uid": 15650776,
  "size": 2601642611,
  "categoryP": "video",
  "categoryS": "hd___movies",
  "magnet": "?xt=urn:btih:1b088c3a546044c0a27163eab334fbb1e9dd1db2&amp;dn=Sultan+%282016%29+1080p+Blu-ray+x264+AAC+5.1+Subs+-DDR&amp;tr=udp%3A%2F%2Ftracker.leechers-paradise.org%3A6969&amp;tr=udp%3A%2F%2Fzer0day.ch%3A1337&amp;tr=udp%3A%2F%2Fopen.demonii.com%3A1337&amp;tr=udp%3A%2F%2Ftracker.coppersurfer.tk%3A6969&amp;tr=udp%3A%2F%2Fexodus.desync.com%3A6969",
  "seeders": 128,
  "leechers": 63,
  "uploader": "SaM",
  "files": 3,
  "time": 1472092029,
  "description": "** SULTAN **\r\n\r\n** 2016**\r\n\r\n** 1080p / Blu-ray / x264 / AAC 5.1 **\r\n\r\n** Arabic - English - French - Dutch - Indonesian - Turkish - Malay - Thai Subtitle(s) **\r\n\r\n\r\n\r\n[ SCREENS ]\r\n \nhttp://extraimago.com/image/wEk8 \nhttp://extraimago.com/image/wEHf \nhttp://extraimago.com/image/wEHW \nhttp://extraimago.com/image/wEHA \nhttp://extraimago.com/image/wEHv \nhttp://extraimago.com/image/wEHu \nhttp://extraimago.com/image/wEHV \nhttp://extraimago.com/image/wEH6 \nhttp://extraimago.com/image/wEHx \nhttp://extraimago.com/image/wEHt \nhttp://extraimago.com/image/wEHo \nhttp://extraimago.com/image/wEHk \nhttp://extraimago.com/image/wEHH\r\n\r\n[ Info ]\r\nSource : BD50 @ DDR\r\nFormat : Matroska\r\nFile size : 2.40 GiB\r\nDuration : 2 h 49 min\r\nOverall bit rate : 2 031 kb/s\r\nVideo\r\nFormat : AVC\r\nFormat/Info : Advanced Video Codec\r\nFormat profile :   \r\nFormat settings, CABAC : Yes\r\nFormat settings, ReFrames : 5 frames\r\nCodec ID : V_MPEG4/ISO/AVC\r\nDuration : 2 h 49 min\r\nBit rate : 1 796 kb/s\r\nWidth : 1 920 pixels\r\nHeight : 816 pixels\r\nDisplay aspect ratio : 2.35:1\r\nFrame rate mode : Constant\r\nFrame rate : 24.000 FPS\r\ncolor space : YUV\r\nChroma subsampling : 4:2:0\r\nBit depth : 8 bits\r\nScan type : Progressive\r\nBits/(Pixel*Frame) : 0.048\r\nStream size : 2.13 GiB (88%)\r\ncolor primaries : BT.709\r\nTransfer characteristics : BT.709\r\nMatrix coefficients : BT.709\r\n\r\nAudio\r\nFormat : AAC\r\nFormat/Info : Advanced Audio Codec\r\nFormat profile : LC\r\nCodec ID : A_AAC\r\nDuration : 2 h 49 min\r\nBit rate : 192 kb/s\r\nChannel(s) : 6 channels\r\nChannel positions : Front: L C R, Side: L R, LFE\r\nSampling rate : 48.0 kHz\r\nFrame rate : 46.875 FPS (1024 spf)\r\nCompression mode : Lossy\r\nDelay relative to video : 9 ms\r\nStream size : 232 MiB (9%)\r\nLanguage : Hindi\r\nDefault : Yes\r\nForced : No\r\n\r\nChapters = YES",
  "parsed": {
    "xt": "urn:btih:1b088c3a546044c0a27163eab334fbb1e9dd1db2",
    "dn": "Sultan (2016) 1080p Blu-ray x264 AAC 5.1 Subs -DDR",
    "tr": [
      "udp://exodus.desync.com:6969",
      "udp://open.demonii.com:1337",
      "udp://tracker.coppersurfer.tk:6969",
      "udp://tracker.leechers-paradise.org:6969",
      "udp://zer0day.ch:1337"
    ],
    "infoHash": "1b088c3a546044c0a27163eab334fbb1e9dd1db2",
    "infoHashBuffer": {
      "type": "Buffer",
      "data": [
        27,
        8,
        140,
        58,
        84,
        96,
        68,
        192,
        162,
        113,
        99,
        234,
        179,
        52,
        251,
        177,
        233,
        221,
        29,
        178
      ]
    },
    "name": "Sultan (2016) 1080p Blu-ray x264 AAC 5.1 Subs -DDR",
    "announce": [
      "udp://exodus.desync.com:6969",
      "udp://open.demonii.com:1337",
      "udp://tracker.coppersurfer.tk:6969",
      "udp://tracker.leechers-paradise.org:6969",
      "udp://zer0day.ch:1337"
    ],
    "urlList": []
  },
  "previous": 191,
  "peers": 332,
  "last_updated": "2016-12-24T18:42:51.402Z"
}